<svg width="30" height="30" viewBox="0 0 30 30" fill="none" xmlns="http://www.w3.org/2000/svg">
<path d="M13.171 6.74253C13.5894 6.32411 14.2678 6.32411 14.6862 6.74253C15.1046 7.16094 15.1046 7.83934 14.6862 8.25775L9.01503 13.9287H23.5715C24.1209 13.9287 24.5738 14.3423 24.6357 14.8752L24.6429 15.0001C24.6429 15.5919 24.1632 16.0716 23.5715 16.0716H9.01503L14.6862 21.7425C15.0725 22.1288 15.1022 22.7365 14.7754 23.1568L14.6862 23.2578C14.2678 23.6762 13.5894 23.6762 13.171 23.2578L5.67099 15.7578L5.59256 15.6703C5.59008 15.6672 5.58761 15.6641 5.58516 15.6609C5.57927 15.6535 5.57334 15.6458 5.56754 15.638C5.54842 15.6121 5.53045 15.5854 5.51368 15.558C5.50569 15.5451 5.49807 15.532 5.49075 15.5188C5.4791 15.4976 5.46794 15.4757 5.45752 15.4535C5.44898 15.4352 5.44096 15.4167 5.43349 15.398C5.42502 15.3768 5.41731 15.3556 5.41026 15.3341C5.4051 15.3182 5.40014 15.3017 5.39558 15.2851C5.38914 15.262 5.38358 15.2388 5.37878 15.2153C5.37507 15.1966 5.37178 15.1779 5.36898 15.1592C5.36121 15.1077 5.35718 15.0544 5.35718 15.0001L5.36143 15.0958C5.35921 15.0708 5.35786 15.0459 5.35738 15.0209L5.35718 15.0001C5.35718 14.9933 5.35724 14.9864 5.35737 14.9796C5.35782 14.9551 5.35918 14.9298 5.36143 14.9045C5.36336 14.8824 5.36587 14.8614 5.36898 14.8405C5.37178 14.8223 5.37507 14.8037 5.37886 14.7851C5.38358 14.7615 5.38914 14.7382 5.39545 14.7153C5.40014 14.6986 5.4051 14.6821 5.41047 14.6657C5.41731 14.6446 5.42502 14.6234 5.43336 14.6026C5.44096 14.5836 5.44898 14.565 5.45754 14.5467C5.46794 14.5245 5.4791 14.5027 5.49097 14.4813C5.49807 14.4683 5.50569 14.4552 5.5136 14.4422C5.53045 14.4148 5.54842 14.3882 5.56751 14.3625C5.59858 14.3205 5.63307 14.2804 5.67099 14.2425L5.58516 14.3393C5.61182 14.3054 5.64049 14.273 5.67099 14.2425L13.171 6.74253Z" fill="currentColor"/>
</svg>
