<svg width="32" height="32" viewBox="0 0 32 32" fill="none" xmlns="http://www.w3.org/2000/svg">
<path fill-rule="evenodd" clip-rule="evenodd" d="M12.5081 10.8585C11.8779 10.8935 11.3954 11.4328 11.4304 12.063L12.0018 22.3487C12.0368 22.9789 12.5761 23.4614 13.2063 23.4264C13.8365 23.3914 14.319 22.8521 14.284 22.2219L13.7126 11.9362C13.6776 11.306 13.1383 10.8235 12.5081 10.8585Z" fill="currentColor"/>
<path fill-rule="evenodd" clip-rule="evenodd" d="M19.492 10.8585C20.1222 10.8935 20.6047 11.4328 20.5697 12.063L19.9983 22.3487C19.9633 22.9789 19.424 23.4614 18.7938 23.4264C18.1636 23.3914 17.6811 22.8521 17.7161 22.2219L18.2875 11.9362C18.3225 11.306 18.8618 10.8235 19.492 10.8585Z" fill="currentColor"/>
<path fill-rule="evenodd" clip-rule="evenodd" d="M4.00003 5.71387C3.36885 5.71387 2.85718 6.22554 2.85718 6.85672C2.85718 7.48791 3.36885 7.99958 4.00003 7.99958H5.2527L6.73559 22.654C6.81996 23.4879 6.88988 24.179 6.9915 24.7412C7.09742 25.3273 7.25146 25.8613 7.54988 26.3571C8.0153 27.1303 8.69916 27.7485 9.5153 28.1337C10.0386 28.3807 10.5854 28.4802 11.1792 28.5265C11.7488 28.571 12.4434 28.571 13.2816 28.571H18.7185C19.5567 28.571 20.2513 28.571 20.8209 28.5265C21.4147 28.4802 21.9615 28.3807 22.4848 28.1337C23.3009 27.7485 23.9848 27.1303 24.4502 26.3571C24.7486 25.8613 24.9026 25.3273 25.0086 24.7412C25.1102 24.179 25.1801 23.488 25.2645 22.654L26.7474 7.99958H28C28.6312 7.99958 29.1429 7.48791 29.1429 6.85672C29.1429 6.22554 28.6312 5.71387 28 5.71387H21.0155C20.4958 3.42359 18.4476 1.71387 16 1.71387C13.5525 1.71387 11.5043 3.42359 10.9846 5.71387H4.00003ZM9.00522 22.3797C9.0952 23.269 9.15691 23.8707 9.24077 24.3347C9.32211 24.7848 9.41032 25.0157 9.5082 25.1783C9.74091 25.5649 10.0828 25.874 10.4909 26.0666C10.6626 26.1476 10.9012 26.2121 11.3572 26.2478C11.8272 26.2845 12.4322 26.2853 13.326 26.2853H18.6741C19.5679 26.2853 20.1728 26.2845 20.6429 26.2478C21.0988 26.2121 21.3375 26.1476 21.5092 26.0666C21.9172 25.874 22.2592 25.5649 22.4919 25.1783C22.5898 25.0157 22.678 24.7848 22.7593 24.3347C22.8432 23.8707 22.9049 23.269 22.9949 22.3797L24.45 7.99958H7.55009L9.00522 22.3797ZM16 3.99958C14.8284 3.99958 13.8215 4.70478 13.3806 5.71387H18.6194C18.1785 4.70478 17.1716 3.99958 16 3.99958Z" fill="currentColor"/>
</svg>
