<svg width="24" height="24" viewBox="0 0 24 24" fill="none" xmlns="http://www.w3.org/2000/svg">
<path fill-rule="evenodd" clip-rule="evenodd" d="M11.1739 2.7845C11.6883 2.50174 12.3117 2.50185 12.826 2.78479L21.3935 7.49802C21.9356 7.79624 22.2856 8.3797 22.2856 9.00005V15.4286C22.2856 15.902 21.9019 16.2858 21.4285 16.2858C20.9551 16.2858 20.5713 15.902 20.5713 15.4286V10.9544L18.857 11.8974V14.6069C18.8571 14.9712 18.8571 15.194 18.8453 15.3882C18.649 18.633 16.0614 21.2206 12.8166 21.4169C12.5449 21.4333 12.2719 21.4287 11.9999 21.4286C11.7278 21.4287 11.4549 21.4333 11.1832 21.4169C7.9384 21.2206 5.35076 18.633 5.15449 15.3882C5.14274 15.194 5.14275 14.9711 5.14276 14.6068V11.9004L2.59921 10.5023C1.41452 9.85113 1.41452 8.14892 2.59922 7.49773L11.1739 2.7845ZM6.85705 12.8427V14.5715C6.85705 14.982 6.85744 15.149 6.86565 15.2847C7.00958 17.6642 8.90718 19.5618 11.2867 19.7057C11.4224 19.7139 11.5894 19.7143 11.9999 19.7143C12.4104 19.7143 12.5774 19.7139 12.7131 19.7057C15.0926 19.5618 16.9902 17.6642 17.1342 15.2847C17.1424 15.149 17.1428 14.982 17.1428 14.5715V12.8405L12.826 15.2153C12.3117 15.4982 11.6883 15.4983 11.1739 15.2156L6.85705 12.8427ZM11.9997 4.2868L3.42498 9.00003L11.9997 13.7133L20.5673 9.00003L11.9997 4.2868Z" fill="currentColor"/>
</svg>
