<svg width="32" height="32" viewBox="0 0 32 32" fill="none" xmlns="http://www.w3.org/2000/svg">
<path d="M16.0001 2.66699C23.3467 2.66699 29.3334 8.05366 29.3334 14.667C29.3334 19.0803 25.7467 22.667 21.3334 22.667H18.9734C18.6001 22.667 18.3067 22.9603 18.3067 23.3337C18.3067 23.4937 18.3734 23.6403 18.4801 23.7737C19.0267 24.4003 19.3334 25.187 19.3334 26.0003C19.3334 27.8403 17.8401 29.3337 16.0001 29.3337C8.65342 29.3337 2.66675 23.347 2.66675 16.0003C2.66675 8.65366 8.65342 2.66699 16.0001 2.66699ZM15.9944 4.9489C9.90542 4.9489 4.94865 9.90566 4.94865 15.9946C4.94865 22.0836 9.90542 27.0403 15.9944 27.0403C16.381 27.0403 16.6847 26.7366 16.6847 26.35C16.6847 26.1291 16.5743 25.9634 16.4914 25.8667C15.9253 25.2316 15.6216 24.417 15.6216 23.5885C15.6216 21.6832 17.168 20.1368 19.0734 20.1368H21.5172C24.5686 20.1368 27.0401 17.6653 27.0401 14.6139C27.0401 9.28434 22.0833 4.9489 15.9944 4.9489ZM8.66675 13.3337C9.77132 13.3337 10.6667 14.2291 10.6667 15.3337C10.6667 16.4382 9.77132 17.3337 8.66675 17.3337C7.56218 17.3337 6.66675 16.4382 6.66675 15.3337C6.66675 14.2291 7.56218 13.3337 8.66675 13.3337ZM23.3334 13.3337C24.438 13.3337 25.3334 14.2291 25.3334 15.3337C25.3334 16.4382 24.438 17.3337 23.3334 17.3337C22.2288 17.3337 21.3334 16.4382 21.3334 15.3337C21.3334 14.2291 22.2288 13.3337 23.3334 13.3337ZM12.6667 8.00033C13.7713 8.00033 14.6667 8.89576 14.6667 10.0003C14.6667 11.1049 13.7713 12.0003 12.6667 12.0003C11.5622 12.0003 10.6667 11.1049 10.6667 10.0003C10.6667 8.89576 11.5622 8.00033 12.6667 8.00033ZM19.3334 8.00033C20.438 8.00033 21.3334 8.89576 21.3334 10.0003C21.3334 11.1049 20.438 12.0003 19.3334 12.0003C18.2288 12.0003 17.3334 11.1049 17.3334 10.0003C17.3334 8.89576 18.2288 8.00033 19.3334 8.00033Z" fill="currentColor"/>
</svg>
