<svg width="28" height="28" viewBox="0 0 28 28" fill="none" xmlns="http://www.w3.org/2000/svg">
<path d="M15.148 2.04074C15.5755 2.10915 15.98 2.27274 16.3431 2.56326C16.938 3.03918 17.2213 3.63909 17.4402 4.51493C17.4963 4.73914 17.5933 5.00052 17.7145 5.25421C17.9926 5.37243 18.2646 5.50383 18.5298 5.6479C18.7916 5.58323 19.043 5.49734 19.2437 5.40389C20.6559 4.74644 21.8407 4.78098 22.8109 5.82744C22.8929 5.91595 22.9419 5.97458 23.0485 6.10623L23.6779 6.88337C23.8471 7.09238 23.9194 7.18761 24.0262 7.3653C24.718 8.51673 24.4483 9.58909 23.5738 10.7511C23.4287 10.9439 23.2805 11.1963 23.1566 11.4618C23.2348 11.7444 23.2999 12.0309 23.3516 12.3206C23.5744 12.499 23.8112 12.6554 24.0203 12.7621C24.8244 13.1725 25.3452 13.5835 25.6751 14.2702C25.8765 14.6894 25.9449 15.1202 25.9154 15.5522C25.8998 15.7805 25.8751 15.9078 25.8093 16.1928L25.5844 17.1672C25.5186 17.4521 25.485 17.5773 25.3989 17.7894C25.2361 18.1906 24.9857 18.5479 24.6209 18.8364C24.0234 19.3089 23.3751 19.45 22.4725 19.4663C22.2442 19.4705 21.9713 19.5054 21.6999 19.5652C21.5234 19.809 21.3355 20.0443 21.1368 20.2704C21.1402 20.5446 21.1675 20.814 21.2142 21.0344C21.4013 21.9176 21.4097 22.581 21.0836 23.2695C20.8846 23.6898 20.5928 24.0141 20.2385 24.2631C20.0512 24.3946 19.9368 24.4555 19.6739 24.5837L18.7751 25.0221C18.5122 25.1503 18.3938 25.203 18.1748 25.2696C17.7606 25.3955 17.3253 25.4258 16.8716 25.3238C16.1283 25.1569 15.6107 24.7419 15.0299 24.0506C14.8764 23.8679 14.6667 23.6691 14.4386 23.49C14.2928 23.4967 14.1465 23.5 14 23.5C13.8534 23.5 13.7071 23.4967 13.5613 23.49C13.3333 23.6691 13.1235 23.8679 12.97 24.0506C12.3892 24.7419 11.8716 25.1569 11.1283 25.3238C10.6746 25.4258 10.2394 25.3955 9.8251 25.2696C9.60613 25.203 9.48768 25.1503 9.2248 25.0221L8.32601 24.5837C8.24699 24.5453 8.19797 24.521 8.14071 24.4912C6.82916 23.8082 6.44467 22.6441 6.78577 21.0344C6.83247 20.814 6.85972 20.5446 6.86313 20.2704C6.66443 20.0443 6.4765 19.809 6.30003 19.5652C6.02861 19.5054 5.75576 19.4705 5.52743 19.4663C4.62478 19.45 3.97651 19.3089 3.37898 18.8364C3.01421 18.5479 2.76383 18.1906 2.601 17.7894C2.51494 17.5773 2.48133 17.4521 2.41553 17.1672L2.19058 16.1928C2.12093 15.8911 2.09527 15.7565 2.08205 15.512C2.05728 15.0537 2.14499 14.5984 2.37762 14.1664C2.71657 13.537 3.21827 13.1507 3.97963 12.7621C4.18876 12.6554 4.42553 12.499 4.64828 12.3206C4.70004 12.0309 4.76515 11.7444 4.84333 11.4618C4.7194 11.1963 4.57125 10.9439 4.42615 10.7511C3.55166 9.58909 3.28189 8.51673 3.97375 7.3653C4.08051 7.18761 4.15282 7.09238 4.32207 6.88337L4.95139 6.10623C5.05799 5.97458 5.10699 5.91595 5.18905 5.82744C6.15925 4.78098 7.34399 4.74644 8.75623 5.40389C8.95697 5.49734 9.20835 5.58323 9.4701 5.6479C9.73529 5.50383 10.0073 5.37243 10.2854 5.25421C10.4066 5.00052 10.5036 4.73914 10.5597 4.51493C10.7786 3.63909 11.0619 3.03918 11.6568 2.56326C12.02 2.27274 12.4244 2.10915 12.8519 2.04074C13.0327 2.01182 13.1518 2.0031 13.342 2.00077L14.5 2C14.7924 2 14.922 2.00459 15.148 2.04074ZM14.5857 4.0002L13.5 4C13 4 12.75 4 12.5 5C12.3612 5.55507 12.0684 6.26419 11.6643 6.87084C11.0217 7.08124 10.4173 7.37609 9.86435 7.74228C9.14758 7.67166 8.42426 7.45545 7.91214 7.21704C6.97767 6.78201 6.82034 6.97629 6.50568 7.36487L5.87636 8.14201C5.5617 8.53059 5.40437 8.72487 6.02418 9.54848C6.37304 10.012 6.74531 10.6984 6.9612 11.4045C6.74014 12.0038 6.59343 12.6392 6.53227 13.2993C6.03065 13.8335 5.4013 14.282 4.88874 14.5436C3.97061 15.0121 4.02685 15.2557 4.13932 15.7429L4.36427 16.7173C4.47675 17.2044 4.53299 17.448 5.5636 17.4667C6.13342 17.477 6.88656 17.6018 7.56647 17.8571C7.91181 18.4319 8.33198 18.9565 8.81352 19.4177C8.90788 20.1352 8.86003 20.8935 8.74233 21.449C8.52866 22.4574 8.75336 22.567 9.20275 22.7862L10.1015 23.2245C10.5509 23.4437 10.7756 23.5533 11.4387 22.7641C11.8105 22.3216 12.3925 21.8067 13.0292 21.4377C13.347 21.4788 13.671 21.5 14 21.5C14.3289 21.5 14.6529 21.4788 14.9707 21.4377C15.6074 21.8067 16.1894 22.3216 16.5612 22.7641C17.2243 23.5533 17.449 23.4437 17.8984 23.2245L18.7972 22.7862C19.2466 22.567 19.4713 22.4574 19.2576 21.449C19.1399 20.8935 19.092 20.1352 19.1864 19.4177C19.6679 18.9565 20.0881 18.4319 20.4335 17.8571C21.1134 17.6018 21.8665 17.477 22.4363 17.4667C23.4669 17.448 23.5232 17.2044 23.6357 16.7173L23.8606 15.7429C23.9731 15.2557 24.0293 15.0121 23.1112 14.5436C22.5986 14.282 21.9693 13.8335 21.4677 13.2993C21.4065 12.6392 21.2598 12.0038 21.0387 11.4045C21.2546 10.6984 21.6269 10.012 21.9757 9.54848C22.5956 8.72487 22.4382 8.53059 22.1236 8.14201L21.4942 7.36487C21.1796 6.97629 21.0223 6.78201 20.0878 7.21704C19.5757 7.45545 18.8523 7.67166 18.1356 7.74228C17.5826 7.37609 16.9783 7.08124 16.3357 6.87084C15.9315 6.26419 15.6387 5.55507 15.5 5C15.2647 4.05882 15.0294 4.00346 14.5857 4.0002ZM14 9.5C16.4852 9.5 18.5 11.5147 18.5 14C18.5 16.4853 16.4852 18.5 14 18.5C11.5147 18.5 9.49996 16.4853 9.49996 14C9.49996 11.5147 11.5147 9.5 14 9.5ZM14 11.5C12.6193 11.5 11.5 12.6193 11.5 14C11.5 15.3807 12.6193 16.5 14 16.5C15.3807 16.5 16.5 15.3807 16.5 14C16.5 12.6193 15.3807 11.5 14 11.5Z" fill="currentColor"/>
</svg>
