<svg width="28" height="28" viewBox="0 0 28 28" fill="none" xmlns="http://www.w3.org/2000/svg">
<path fill-rule="evenodd" clip-rule="evenodd" d="M11.8134 3.93043C13.1172 2.98315 14.8827 2.98315 16.1865 3.93043C16.5684 4.20787 16.8676 4.5923 17.1495 5.01759C17.4303 5.44136 17.7509 5.99667 18.147 6.68289L24.5753 17.817C24.9715 18.5032 25.2922 19.0586 25.5188 19.5136C25.7462 19.9703 25.9295 20.4217 25.9788 20.8911C26.1473 22.4939 25.2645 24.0229 23.7922 24.6784C23.361 24.8703 22.8785 24.9373 22.3693 24.9687C21.8619 25 21.2207 25 20.4283 25H7.57169C6.77931 25 6.13809 25 5.63069 24.9687C5.12147 24.9373 4.63893 24.8703 4.20772 24.6784C2.73545 24.0229 1.8527 22.4939 2.02116 20.8911C2.0705 20.4217 2.25382 19.9703 2.48122 19.5136C2.70781 19.0586 3.02842 18.5033 3.42461 17.8171L9.85293 6.68289C10.2491 5.99667 10.5697 5.44136 10.8505 5.01759C11.1323 4.5923 11.4316 4.20787 11.8134 3.93043ZM15.011 5.54846C14.4081 5.11047 13.5918 5.11047 12.989 5.54846C12.9031 5.61085 12.7633 5.75178 12.5177 6.12235C12.2751 6.48846 11.9851 6.9898 11.5682 7.71197L5.17346 18.788C4.75651 19.5101 4.46732 20.0119 4.27156 20.4051C4.07342 20.803 4.0213 20.9946 4.01021 21.1002C3.93232 21.8412 4.34047 22.5482 5.0212 22.8513C5.11816 22.8944 5.31014 22.9451 5.75384 22.9725C6.19221 22.9995 6.77136 23 7.60525 23H20.3947C21.2286 23 21.8078 22.9995 22.2461 22.9725C22.6898 22.9451 22.8818 22.8944 22.9788 22.8513C23.6595 22.5482 24.0677 21.8412 23.9898 21.1002C23.9787 20.9946 23.9266 20.803 23.7284 20.4051C23.5326 20.0119 23.2435 19.5101 22.8265 18.788L16.4318 7.71197C16.0148 6.9898 15.7249 6.48846 15.4823 6.12235C15.2367 5.75178 15.0968 5.61085 15.011 5.54846Z" fill="#2688EB"/>
<path fill-rule="evenodd" clip-rule="evenodd" d="M14 9.5C13.4477 9.5 13 9.94772 13 10.5L13 15.5C13 16.0523 13.4477 16.5 14 16.5C14.5523 16.5 15 16.0523 15 15.5V10.5C15 9.94772 14.5523 9.5 14 9.5ZM14 18.3C13.3373 18.3 12.8 18.8373 12.8 19.5C12.8 20.1627 13.3373 20.7 14 20.7C14.6627 20.7 15.2 20.1627 15.2 19.5C15.2 18.8373 14.6627 18.3 14 18.3Z" fill="#2688EB"/>
</svg>
